<svg width="42" height="51" viewBox="0 0 42 51" fill="none" xmlns="http://www.w3.org/2000/svg">
<path d="M42 25.1364C42.0016 25.7928 41.8354 26.4386 41.5176 27.0107C41.1997 27.5829 40.7411 28.062 40.1864 28.4015L5.80363 49.7036C5.22395 50.0631 4.56002 50.2593 3.88041 50.2721C3.2008 50.2848 2.53015 50.1136 1.93773 49.7761C1.35094 49.4438 0.862136 48.9592 0.521573 48.3722C0.181009 47.7852 0.000980456 47.1169 0 46.436V3.83673C0.000980456 3.15587 0.181009 2.48757 0.521573 1.90053C0.862136 1.3135 1.35094 0.828932 1.93773 0.496659C2.53015 0.159143 3.2008 -0.0120831 3.88041 0.000663052C4.56002 0.0134092 5.22395 0.209666 5.80363 0.569165L40.1864 21.8712C40.7411 22.2107 41.1997 22.6898 41.5176 23.262C41.8354 23.8342 42.0016 24.4799 42 25.1364Z" fill="white"/>
</svg>
