<svg width="33" height="32" viewBox="0 0 33 32" fill="none" xmlns="http://www.w3.org/2000/svg">
<path opacity="0.2" d="M26.3174 9V23C26.3174 23.2652 26.212 23.5196 26.0245 23.7071C25.837 23.8946 25.5826 24 25.3174 24H22.3174V13L17.3174 8H10.3174V5C10.3174 4.73478 10.4227 4.48043 10.6103 4.29289C10.7978 4.10536 11.0522 4 11.3174 4H21.3174L26.3174 9Z" fill="#2D746D"/>
<path d="M27.0249 8.2925L22.0249 3.2925C21.9319 3.19967 21.8216 3.12605 21.7002 3.07586C21.5788 3.02568 21.4487 2.9999 21.3174 3H11.3174C10.7869 3 10.2782 3.21071 9.90317 3.58579C9.5281 3.96086 9.31738 4.46957 9.31738 5V7H7.31738C6.78695 7 6.27824 7.21071 5.90317 7.58579C5.5281 7.96086 5.31738 8.46957 5.31738 9V27C5.31738 27.5304 5.5281 28.0391 5.90317 28.4142C6.27824 28.7893 6.78695 29 7.31738 29H21.3174C21.8478 29 22.3565 28.7893 22.7316 28.4142C23.1067 28.0391 23.3174 27.5304 23.3174 27V25H25.3174C25.8478 25 26.3565 24.7893 26.7316 24.4142C27.1067 24.0391 27.3174 23.5304 27.3174 23V9C27.3175 8.86864 27.2917 8.73855 27.2415 8.61715C27.1913 8.49576 27.1177 8.38544 27.0249 8.2925ZM21.3174 27H7.31738V9H16.9036L21.3174 13.4137V23.98C21.3174 23.9875 21.3174 23.9937 21.3174 24C21.3174 24.0063 21.3174 24.0125 21.3174 24.02V27ZM25.3174 23H23.3174V13C23.3175 12.8686 23.2917 12.7385 23.2415 12.6172C23.1913 12.4958 23.1177 12.3854 23.0249 12.2925L18.0249 7.2925C17.9319 7.19967 17.8216 7.12605 17.7002 7.07586C17.5788 7.02568 17.4487 6.9999 17.3174 7H11.3174V5H20.9036L25.3174 9.41375V23ZM18.3174 19C18.3174 19.2652 18.212 19.5196 18.0245 19.7071C17.837 19.8946 17.5826 20 17.3174 20H11.3174C11.0522 20 10.7978 19.8946 10.6103 19.7071C10.4227 19.5196 10.3174 19.2652 10.3174 19C10.3174 18.7348 10.4227 18.4804 10.6103 18.2929C10.7978 18.1054 11.0522 18 11.3174 18H17.3174C17.5826 18 17.837 18.1054 18.0245 18.2929C18.212 18.4804 18.3174 18.7348 18.3174 19ZM18.3174 23C18.3174 23.2652 18.212 23.5196 18.0245 23.7071C17.837 23.8946 17.5826 24 17.3174 24H11.3174C11.0522 24 10.7978 23.8946 10.6103 23.7071C10.4227 23.5196 10.3174 23.2652 10.3174 23C10.3174 22.7348 10.4227 22.4804 10.6103 22.2929C10.7978 22.1054 11.0522 22 11.3174 22H17.3174C17.5826 22 17.837 22.1054 18.0245 22.2929C18.212 22.4804 18.3174 22.7348 18.3174 23Z" fill="#2D746D"/>
</svg>
