<svg width="33" height="32" viewBox="0 0 33 32" fill="none" xmlns="http://www.w3.org/2000/svg">
<path opacity="0.2" d="M27.3174 6V21C19.3174 27.9288 13.3174 14.0713 5.31738 21V6C13.3174 -0.928749 19.3174 12.9288 27.3174 6Z" fill="#2D746D"/>
<path d="M4.66238 5.25C4.5548 5.34325 4.46837 5.4584 4.40888 5.58774C4.34938 5.71708 4.31819 5.85763 4.31738 6V27C4.31738 27.2652 4.42274 27.5196 4.61028 27.7071C4.79781 27.8946 5.05217 28 5.31738 28C5.5826 28 5.83695 27.8946 6.02449 27.7071C6.21203 27.5196 6.31738 27.2652 6.31738 27V21.4713C9.66613 18.8263 12.5511 20.2525 15.8736 21.8975C17.9236 22.9113 20.1311 24.0038 22.4986 24.0038C24.2399 24.0038 26.0661 23.41 27.9761 21.7538C28.0837 21.6605 28.1701 21.5454 28.2296 21.416C28.2891 21.2867 28.3203 21.1461 28.3211 21.0038V6C28.3207 5.80806 28.265 5.6203 28.1607 5.45915C28.0565 5.29799 27.908 5.17025 27.7331 5.09117C27.5582 5.01209 27.3643 4.98502 27.1744 5.01318C26.9845 5.04135 26.8068 5.12356 26.6624 5.25C23.1624 8.27875 20.1974 6.81125 16.7611 5.11C13.2011 3.345 9.16488 1.34875 4.66238 5.25ZM26.3174 20.5313C22.9686 23.1763 20.0836 21.7488 16.7611 20.105C13.6361 18.5613 10.1599 16.8388 6.31738 19.055V6.47375C9.66613 3.82875 12.5511 5.255 15.8736 6.89875C18.9986 8.4425 22.4761 10.165 26.3174 7.94875V20.5313Z" fill="#2D746D"/>
</svg>
