<svg width="33" height="32" viewBox="0 0 33 32" fill="none" xmlns="http://www.w3.org/2000/svg">
<path opacity="0.2" d="M21.4711 8.25C19.9091 9.11544 18.6072 10.3834 17.7009 11.9221C16.7946 13.4609 16.3169 15.2142 16.3174 17C16.3179 15.2142 15.8402 13.4609 14.9338 11.9221C14.0275 10.3834 12.7257 9.11544 11.1636 8.25C12.8174 4.75 16.3174 3 16.3174 3C16.3174 3 19.8174 4.75 21.4711 8.25Z" fill="#2D746D"/>
<path d="M26.3174 6C24.7955 5.99863 23.29 6.31496 21.8974 6.92875C20.0099 3.7575 16.9074 2.17875 16.7649 2.105C16.626 2.03548 16.4727 1.99928 16.3174 1.99928C16.162 1.99928 16.0088 2.03548 15.8699 2.105C15.7274 2.1775 12.6199 3.7575 10.7374 6.92875C9.34473 6.31496 7.83929 5.99863 6.31738 6C6.05217 6 5.79781 6.10536 5.61028 6.29289C5.42274 6.48043 5.31738 6.73478 5.31738 7V12C5.32068 14.7432 6.34761 17.3865 8.19717 19.4125C10.0467 21.4384 12.5858 22.7013 15.3174 22.9537V27.3825L10.7649 25.105C10.6473 25.0462 10.5194 25.0112 10.3883 25.0019C10.2572 24.9926 10.1256 25.0092 10.001 25.0507C9.87629 25.0923 9.76103 25.158 9.66176 25.2441C9.56249 25.3302 9.48115 25.435 9.42238 25.5525C9.36362 25.67 9.32857 25.798 9.31926 25.9291C9.30994 26.0601 9.32654 26.1918 9.36809 26.3164C9.40965 26.4411 9.47535 26.5563 9.56145 26.6556C9.64754 26.7549 9.75235 26.8362 9.86988 26.895L15.8699 29.895C16.0088 29.9645 16.162 30.0007 16.3174 30.0007C16.4727 30.0007 16.626 29.9645 16.7649 29.895L22.7649 26.895C23.0023 26.7763 23.1828 26.5682 23.2667 26.3164C23.3506 26.0647 23.3311 25.7899 23.2124 25.5525C23.0937 25.3151 22.8856 25.1346 22.6338 25.0507C22.382 24.9668 22.1073 24.9863 21.8699 25.105L17.3174 27.3825V22.9537C20.049 22.7013 22.588 21.4384 24.4376 19.4125C26.2872 17.3865 27.3141 14.7432 27.3174 12V7C27.3174 6.73478 27.212 6.48043 27.0245 6.29289C26.837 6.10536 26.5826 6 26.3174 6ZM16.3174 4.15125C17.1486 4.66125 18.9524 5.925 20.1474 7.90125C18.4835 9.03115 17.1593 10.5935 16.3174 12.42C15.4761 10.5923 14.1519 9.02905 12.4874 7.89875C13.6836 5.925 15.4861 4.66125 16.3174 4.15125ZM7.31738 12V8.055C9.51652 8.30363 11.5473 9.35274 13.0227 11.0024C14.498 12.652 15.3148 14.7869 15.3174 17V20.945C13.1182 20.6964 11.0875 19.6473 9.61211 17.9976C8.13675 16.348 7.31995 14.2131 7.31738 12ZM25.3174 12C25.3148 14.2131 24.498 16.348 23.0227 17.9976C21.5473 19.6473 19.5165 20.6964 17.3174 20.945V17C17.3199 14.7869 18.1367 12.652 19.6121 11.0024C21.0875 9.35274 23.1182 8.30363 25.3174 8.055V12Z" fill="#2D746D"/>
</svg>
