<svg width="32" height="33" viewBox="0 0 32 33" fill="none" xmlns="http://www.w3.org/2000/svg">
<g clip-path="url(#clip0_1325_26)">
<path opacity="0.2" d="M30 9.49988L26 13.4999C25.4675 21.8549 18.49 28.4999 10 28.4999C6 28.4999 5 26.9999 5 26.9999C5 26.9999 9 25.4999 11 22.4999C11 22.4999 4.10625 18.4999 5.0975 7.49988C5.0975 7.49988 10.055 12.4999 16 13.4999V11.4999C16 8.74988 18.25 6.46613 21 6.49988C21.9705 6.51115 22.9175 6.79952 23.7296 7.33102C24.5417 7.86252 25.185 8.61501 25.5837 9.49988H30Z" fill="#2D746D"/>
<path d="M30.9237 9.11753C30.8481 8.93479 30.7199 8.77858 30.5555 8.66867C30.3911 8.55876 30.1978 8.50007 30 8.50003H26.1962C25.6645 7.59517 24.9077 6.84332 23.9993 6.31762C23.0909 5.79192 22.062 5.51026 21.0125 5.50003C20.2308 5.48966 19.4549 5.63583 18.7306 5.92994C18.0063 6.22405 17.3482 6.66014 16.795 7.21253C16.2249 7.77132 15.7724 8.43853 15.4642 9.17487C15.1559 9.9112 14.9981 10.7018 15 11.5V12.2613C9.96749 10.9338 5.85124 6.84003 5.80749 6.79628C5.67332 6.66093 5.50328 6.56673 5.31738 6.52479C5.13148 6.48284 4.93747 6.49488 4.75818 6.5595C4.5789 6.62413 4.42181 6.73863 4.30543 6.88953C4.18904 7.04044 4.11819 7.22146 4.10124 7.41128C3.56374 13.385 5.29749 17.3825 6.85124 19.6838C7.6092 20.8215 8.53126 21.8409 9.58748 22.7088C7.67873 24.9 4.68124 26.0513 4.64999 26.0638C4.50888 26.1166 4.38154 26.2007 4.27748 26.3097C4.17342 26.4186 4.09534 26.5497 4.04906 26.6931C4.00278 26.8365 3.98951 26.9885 4.01023 27.1378C4.03096 27.287 4.08514 27.4297 4.16874 27.555C4.26124 27.695 4.63749 28.1863 5.55374 28.645C6.68874 29.2125 8.18499 29.5 9.99999 29.5C18.835 29.5 26.215 22.6975 26.97 13.945L30.7075 10.2075C30.8473 10.0676 30.9425 9.88935 30.981 9.69533C31.0194 9.50131 30.9995 9.30023 30.9237 9.11753ZM25.2987 12.7938C25.1273 12.9656 25.0242 13.194 25.0087 13.4363C24.5 21.3225 17.91 27.5 9.99999 27.5C8.67999 27.5 7.74998 27.325 7.09749 27.115C8.53749 26.3338 10.5425 24.99 11.8325 23.055C11.908 22.9417 11.9597 22.8142 11.9842 22.6802C12.0087 22.5462 12.0056 22.4087 11.975 22.2759C11.9445 22.1432 11.8871 22.0181 11.8065 21.9083C11.7259 21.7986 11.6237 21.7064 11.5062 21.6375C11.49 21.6275 9.89874 20.67 8.44624 18.4763C6.81749 16.0138 5.99999 13.0475 5.99999 9.63628C7.99999 11.2613 11.6562 13.7838 15.8362 14.4863C15.9794 14.51 16.1261 14.5024 16.266 14.4637C16.4059 14.4251 16.5358 14.3565 16.6465 14.2627C16.7573 14.1688 16.8462 14.052 16.9073 13.9203C16.9683 13.7886 16.9999 13.6452 17 13.5V11.5C16.9989 10.9666 17.1044 10.4383 17.3105 9.94629C17.5166 9.45427 17.819 9.00843 18.2 8.63503C18.565 8.26886 18.9998 7.97972 19.4786 7.78475C19.9574 7.58978 20.4705 7.49296 20.9875 7.50003C22.57 7.52003 24.0487 8.48503 24.6675 9.90128C24.7455 10.0793 24.8737 10.2308 25.0364 10.3371C25.1991 10.4435 25.3893 10.5001 25.5837 10.5H27.5837L25.2987 12.7938Z" fill="#2D746D"/>
</g>
<defs>
<clipPath id="clip0_1325_26">
<rect width="32" height="32" fill="white" transform="translate(0 0.5)"/>
</clipPath>
</defs>
</svg>
