<svg width="32" height="33" viewBox="0 0 32 33" fill="none" xmlns="http://www.w3.org/2000/svg">
<g clip-path="url(#clip0_1325_34)">
<path opacity="0.2" d="M28.3237 9.44137C28.2468 9.13302 28.0974 8.84746 27.8881 8.60834C27.6788 8.36922 27.4155 8.18343 27.12 8.06637C22.935 6.45637 16 6.50012 16 6.50012C16 6.50012 9.065 6.45637 4.875 8.07262C4.57954 8.18968 4.31623 8.37547 4.1069 8.61459C3.89756 8.85371 3.74822 9.13927 3.67125 9.44762C3.38375 10.5676 3 12.7614 3 16.5001C3 20.2389 3.38375 22.4326 3.67625 23.5589C3.7536 23.8655 3.90258 24.1495 4.11096 24.3875C4.31935 24.6254 4.58119 24.8105 4.875 24.9276C9.065 26.5439 16 26.5001 16 26.5001C16 26.5001 22.935 26.5439 27.125 24.9276C27.4197 24.8112 27.6826 24.6263 27.8919 24.3883C28.1012 24.1504 28.2509 23.8661 28.3288 23.5589C28.6213 22.4339 29.005 20.2389 29.005 16.5001C29.005 12.7614 28.6162 10.5676 28.3237 9.44137ZM14 20.5001V12.5001L20 16.5001L14 20.5001Z" fill="#2D746D"/>
<path d="M20.555 15.6675L14.555 11.6675C14.4044 11.567 14.2293 11.5093 14.0484 11.5005C13.8675 11.4918 13.6877 11.5323 13.528 11.6177C13.3684 11.7032 13.2349 11.8304 13.1419 11.9858C13.0489 12.1412 12.9999 12.3189 13 12.5V20.5C12.9999 20.6811 13.0489 20.8588 13.1419 21.0142C13.2349 21.1696 13.3684 21.2968 13.528 21.3823C13.6877 21.4677 13.8675 21.5082 14.0484 21.4995C14.2293 21.4907 14.4044 21.433 14.555 21.3325L20.555 17.3325C20.6922 17.2412 20.8047 17.1175 20.8825 16.9722C20.9603 16.827 21.001 16.6648 21.001 16.5C21.001 16.3352 20.9603 16.173 20.8825 16.0278C20.8047 15.8826 20.6922 15.7588 20.555 15.6675ZM15 18.6313V14.375L18.1975 16.5L15 18.6313ZM29.2913 9.19C29.1735 8.72919 28.9478 8.30298 28.6329 7.94654C28.318 7.59011 27.9228 7.31366 27.48 7.14C23.195 5.485 16.375 5.5 16 5.5C15.625 5.5 8.805 5.485 4.52 7.14C4.0772 7.31366 3.68204 7.59011 3.36712 7.94654C3.05219 8.30298 2.82653 8.72919 2.70875 9.19C2.385 10.4375 2 12.7175 2 16.5C2 20.2825 2.385 22.5625 2.70875 23.81C2.82636 24.271 3.05194 24.6975 3.36687 25.0542C3.68181 25.4108 4.07706 25.6875 4.52 25.8613C8.625 27.445 15.05 27.5 15.9175 27.5H16.0825C16.95 27.5 23.3787 27.445 27.48 25.8613C27.9229 25.6875 28.3182 25.4108 28.6331 25.0542C28.9481 24.6975 29.1736 24.271 29.2913 23.81C29.615 22.56 30 20.2825 30 16.5C30 12.7175 29.615 10.4375 29.2913 9.19ZM27.355 23.315C27.3169 23.4684 27.243 23.6105 27.1394 23.7298C27.0357 23.8491 26.9053 23.9421 26.7588 24.0013C22.8025 25.5288 16.0737 25.5013 15.9937 25.5013C15.9137 25.5013 9.1975 25.5238 5.24375 24.0013C5.09721 23.9421 4.96678 23.8491 4.86313 23.7298C4.75949 23.6105 4.6856 23.4684 4.6475 23.315C4.35 22.1738 4 20.0713 4 16.5C4 12.9288 4.35 10.8263 4.645 9.69125C4.68239 9.53698 4.75596 9.39382 4.85965 9.27362C4.96333 9.15342 5.09413 9.05963 5.24125 9C9.1975 7.4775 15.925 7.5 16.0063 7.5C16.0875 7.5 22.8025 7.4775 26.7563 9C26.9028 9.05915 27.0332 9.15217 27.1369 9.27146C27.2405 9.39074 27.3144 9.53289 27.3525 9.68625C27.65 10.8263 28 12.9288 28 16.5C28 20.0713 27.65 22.1738 27.355 23.3088V23.315Z" fill="#2D746D"/>
</g>
<defs>
<clipPath id="clip0_1325_34">
<rect width="32" height="32" fill="white" transform="translate(0 0.5)"/>
</clipPath>
</defs>
</svg>
