<svg width="32" height="32" viewBox="0 0 32 32" fill="none" xmlns="http://www.w3.org/2000/svg">
<path opacity="0.2" d="M29 15.9775C29.0039 17.4276 28.6136 18.8514 27.8708 20.0968C27.1281 21.3422 26.0608 22.3623 24.7831 23.048C23.5054 23.7337 22.0653 24.0593 20.6169 23.9898C19.1685 23.9204 17.7662 23.4586 16.56 22.6538C16.3941 22.5409 16.1981 22.4806 15.9975 22.4806C15.7969 22.4806 15.6009 22.5409 15.435 22.6538C14.5171 23.2696 13.4815 23.6885 12.3936 23.884C11.3056 24.0796 10.189 24.0475 9.11408 23.79C8.03915 23.5324 7.02927 23.0549 6.14812 22.3875C5.26697 21.7201 4.53368 20.8774 3.99451 19.9125C3.45534 18.9475 3.12198 17.8813 3.01546 16.7811C2.90894 15.6809 3.03157 14.5706 3.37562 13.5201C3.71967 12.4697 4.27767 11.5019 5.01442 10.6779C5.75118 9.85392 6.6507 9.19152 7.65625 8.73253C7.88203 8.62714 8.06034 8.44125 8.15625 8.21128C8.80353 6.66597 9.89306 5.34642 11.2879 4.41839C12.6828 3.49036 14.3209 2.99524 15.9962 2.99524C17.6716 2.99524 19.3097 3.49036 20.7046 4.41839C22.0994 5.34642 23.189 6.66597 23.8362 8.21128C23.9322 8.44125 24.1105 8.62714 24.3362 8.73253C25.7239 9.36923 26.9004 10.3897 27.7268 11.6735C28.5532 12.9573 28.995 14.4508 29 15.9775Z" fill="#2D746D"/>
<path d="M24.7625 7.82498C24.0391 6.09778 22.8214 4.6229 21.2624 3.58562C19.7034 2.54834 17.8726 1.99493 16 1.99493C14.1274 1.99493 12.2966 2.54834 10.7376 3.58562C9.1786 4.6229 7.96089 6.09778 7.2375 7.82498C5.68089 8.54615 4.36174 9.69555 3.43426 11.1388C2.50679 12.582 2.00931 14.2594 2 15.975C1.98625 20.8275 5.92 24.875 10.7675 25C12.2339 25.0382 13.6873 24.7159 15 24.0612V29C15 29.2652 15.1054 29.5195 15.2929 29.7071C15.4804 29.8946 15.7348 30 16 30C16.2652 30 16.5196 29.8946 16.7071 29.7071C16.8946 29.5195 17 29.2652 17 29V24.0612C18.2423 24.6807 19.6118 25.0022 21 25H21.2325C26.08 24.875 30.0138 20.83 30 15.9775C29.9916 14.2614 29.4945 12.5833 28.567 11.1395C27.6394 9.69566 26.3198 8.54596 24.7625 7.82498ZM21.1813 23C19.7372 23.0395 18.3165 22.6289 17.1163 21.825C17.0771 21.8 17.0383 21.7762 17 21.7537V16.6175L22.4475 13.895C22.565 13.8362 22.6698 13.7549 22.7559 13.6556C22.842 13.5563 22.9077 13.4411 22.9493 13.3164C22.9908 13.1917 23.0074 13.0601 22.9981 12.929C22.9888 12.798 22.9538 12.67 22.895 12.5525C22.8362 12.4349 22.7549 12.3301 22.6556 12.244C22.5564 12.1579 22.4411 12.0922 22.3164 12.0507C22.1918 12.0091 22.0601 11.9925 21.9291 12.0019C21.798 12.0112 21.67 12.0462 21.5525 12.105L17 14.3825V11C17 10.7348 16.8946 10.4804 16.7071 10.2929C16.5196 10.1053 16.2652 9.99998 16 9.99998C15.7348 9.99998 15.4804 10.1053 15.2929 10.2929C15.1054 10.4804 15 10.7348 15 11V17.3825L10.4475 15.105C10.2101 14.9863 9.93534 14.9668 9.68357 15.0507C9.4318 15.1346 9.22369 15.3151 9.105 15.5525C8.98632 15.7898 8.96679 16.0646 9.05071 16.3164C9.13463 16.5682 9.31513 16.7763 9.5525 16.895L15 19.6175V21.75C14.9613 21.7725 14.9225 21.7962 14.885 21.8212C13.6847 22.6265 12.2636 23.0384 10.8188 23C9.23779 22.9605 7.71678 22.3868 6.50352 21.3724C5.29025 20.358 4.45624 18.9627 4.13734 17.4137C3.81844 15.8647 4.03346 14.2534 4.74735 12.8422C5.46125 11.4311 6.63195 10.3033 8.06875 9.64248C8.52317 9.43427 8.88245 9.06249 9.075 8.60123C9.6458 7.23706 10.6071 6.07207 11.8382 5.25271C13.0692 4.43336 14.515 3.9962 15.9938 3.9962C17.4725 3.9962 18.9183 4.43336 20.1493 5.25271C21.3804 6.07207 22.3417 7.23706 22.9125 8.60123C23.1051 9.06249 23.4643 9.43427 23.9188 9.64248C25.3555 10.3033 26.5263 11.4311 27.2402 12.8422C27.954 14.2534 28.1691 15.8647 27.8502 17.4137C27.5313 18.9627 26.6973 20.358 25.484 21.3724C24.2707 22.3868 22.7497 22.9605 21.1688 23H21.1813Z" fill="#2D746D"/>
</svg>
